# xmcd CD database file
#
# Track frame offsets:
#	150
#	17884
#	30387
#	36680
#	42343
#	49247
#	61282
#	67641
#	74856
#	83038
#	154073
#	173916
#	198119
#	220414
#	234939
#	248017
#
# Disc length: 3501 seconds
#
# Revision: 0
# Processed by: cddbd v1.5.2PL0 Copyright (c) Steve Scherf et al.
# Submitted via: CDex 1.70beta2
#
DISCID=db0dab10
DTITLE=Giovanni Sardo and Sergio Scappini - Da Brahms a Piazzola
DYEAR=2004
DGENRE=Jazz
TTITLE0=Danza Ungherese n. 1
TTITLE1=Danza Ungherese n. 5
TTITLE2=Variazione n. 1
TTITLE3=Variazione n. 2
TTITLE4=Variazione n. 3
TTITLE5=Variazione n. 4
TTITLE6=Variazione n. 5
TTITLE7=Variazione n. 6
TTITLE8=Variazione n. 7
TTITLE9=Amarcord
TTITLE10=Oblivion
TTITLE11=Adios Nonino
TTITLE12=Tanti anni prima
TTITLE13=Asqualo
TTITLE14=Milonga del Angel
TTITLE15=Muerte del Angel
EXTD=YEAR: 2004
EXTT0=
EXTT1=
EXTT2=
EXTT3=
EXTT4=
EXTT5=
EXTT6=
EXTT7=
EXTT8=
EXTT9=
EXTT10=
EXTT11=
EXTT12=
EXTT13=
EXTT14=
EXTT15=
PLAYORDER=
